<svg width="128mm" height="86.9mm" version="1.1" viewBox="0 0 455 308" xmlns="http://www.w3.org/2000/svg"><path d="m177 289c-10.3-1.32-27.3-6.72-37.6-12-6.75-3.43-15.6-9.28-23.1-15.2-3.88-3.08-4.07-3.2-4.61-2.71-.312.282-.765.988-1.01 1.57-1.36 3.25-5.25 4.9-9.89 4.2-3.48-.527-8.52-2.4-8.52-3.16 0-.195.613-.588 1.36-.874.749-.286 2.54-1.4 3.98-2.48 1.44-1.08 3.08-2.16 3.66-2.4 2.23-.951 6.72-.207 8.85 1.47.435.342.864.549.953.46.0893-.0893-1.72-2.03-4.02-4.31s-4.93-5.01-5.84-6.05c-1.46-1.69-1.72-1.87-2.27-1.58-.339.182-.705.73-.812 1.22-.107.488-.738 1.45-1.4 2.13-3.6 3.71-9.42 3.81-17.6.285-1.96-.844-1.94-1.37.0887-2.14.825-.312 2.85-1.58 4.5-2.81 3.19-2.38 4.87-3.15 6.92-3.15 1.51 0 4.68.943 6.09 1.81.555.342 1.06.57 1.12.508.0622-.0622-.845-1.45-2.02-3.09-3.95-5.52-7.61-12.3-9.6-17.6-1.08-2.92-1.09-3.44-.0893-3.69.633-.159 8.48.621 8.69.863.0331.0386.554 1.06 1.16 2.26 7.82 15.6 21.4 29.5 42.2 42.9 8.56 5.55 19.9 10.1 30.1 12.2 4.21.852 6.92.933 10.2.304 2.96-.567 5.15-1.58 6.9-3.19 3.37-3.11 3.67-5.69 1.8-15.8-.385-2.08-.635-3.89-.556-4.02.0786-.127 2.95-.231 6.39-.231 4.63 0 6.33.097 6.56.375.435.524 2.04 8.99 2.48 13.1.5 4.65.236 10.5-.577 12.8-2.14 6-7.45 8.36-18.6 8.26-2.74-.0247-5.39-.0967-5.89-.16zm-34.8-.393c-.806-.145-1.59-.386-1.74-.536-.354-.354 4.47-5.33 5.57-5.75 1.47-.56 4.76-.198 5.79.638.49.399-.24 2.77-1.16 3.78-1.53 1.66-5.16 2.47-8.46 1.88zm-17.5-4.77c-1.99-.505-2.01-.435 1.19-3.72 1.68-1.72 3.48-3.35 4.01-3.62 1.73-.881 6.36-.447 7.69.72.367.322-.395 2.68-1.28 3.95-.423.612-1.44 1.49-2.27 1.94-1.37.759-1.8.838-4.95.897-1.9.0355-3.87-.0433-4.39-.175zm-7.31-7.42c-3.58-.522-8.4-2.22-8.4-2.96 0-.219.482-.558 1.07-.753.59-.195 2.11-1.13 3.38-2.08 3.15-2.37 3.91-2.71 6-2.71 2.09 0 3.75.531 5.78 1.85 1.28.831 1.42 1.02 1.07 1.43-.221.261-.575.914-.787 1.45-.449 1.14-2.02 2.6-3.4 3.18-1.08.451-3.58.771-4.71.606zm167-22.7c-.26-.26-.36-2.4-.36-7.74s.0995-7.48.36-7.74c.509-.509 3.08-.459 3.52.0673.305.367.532.347 1.61-.143 1.69-.768 3.19-.737 4.41.0911 1.81 1.23 2.24 2.11 2.35 4.85.119 2.83-.412 4.3-2.06 5.69-1.2 1.01-2.02 1.2-4.22 1.01l-1.77-.161v1.86c0 1.05-.157 2.02-.36 2.22-.198.198-.981.36-1.74.36s-1.54-.162-1.74-.36zm7-7.58c.597-.597.736-1.04.736-2.33 0-2.05-.581-2.93-1.94-2.93-1.89 0-1.96.104-1.96 2.98 0 1.44.09 2.71.2 2.82.492.492 2.25.173 2.96-.536zm-142 3.74c-4.1-.87-6.32-4.03-6.03-8.56.304-4.74 3.37-7.34 8.63-7.34 2.19 0 4.82.653 5.54 1.38.504.504.629 2.7.192 3.39-.214.337-.613.24-2.14-.525-4.34-2.17-7.78-.447-7.78 3.89 0 2.81 1.89 4.77 4.59 4.77l1.14 6e-4-.0923-1.28c-.092-1.27-.0957-1.28-1.44-1.43l-1.35-.15v-2.7h7.2v7.5l-1.58.523c-1.92.638-5.18.891-6.88.532zm23.9-.23c-1.76-.879-2.1-1.99-2.1-6.84-.00029-2.88.114-4.33.36-4.58.198-.198.981-.36 1.74-.36s1.54.162 1.74.36c.24.24.36 1.57.36 3.99 0 4 .136 4.35 1.69 4.35 1.92 0 1.91.007 1.91-4.17 0-2.56.118-3.93.36-4.17.198-.198.981-.36 1.74-.36s1.54.162 1.74.36c.253.253.36 1.93.36 5.64s-.107 5.39-.36 5.64c-.509.509-3.08.459-3.52-.0673-.305-.367-.532-.347-1.61.143-1.58.715-3.05.735-4.41.0584zm31.2.0832c-1.53-.497-2.75-1.52-3.51-2.94-.677-1.26-.68-4.51-.005-5.8 1.97-3.75 7.79-4.66 10.5-1.64 1.07 1.18 1.58 2.92 1.35 4.55-.101.716-.134.723-4.08.806-3.61.076-3.98.134-3.98.628 0 1.63 2.99 2.3 5.69 1.27.902-.344 1.75-.51 1.89-.37s.212.846.161 1.57c-.0795 1.11-.229 1.38-.96 1.73-1.28.612-5.46.729-7.08.199zm3.73-7.54c.632-.242.598-.594-.125-1.32-.75-.75-1.83-.768-2.72-.0467-1.06.856-.596 1.55 1.03 1.55.734 0 1.55-.0819 1.81-.182zm29.2 7.57c-1.81-.51-3.45-1.82-4.41-3.52-.655-1.16-.75-1.69-.749-4.17 6e-4-2.36.115-3.06.657-4.08.846-1.58 2.37-2.91 4.11-3.57 1.79-.682 5.53-.515 7.25.324 1.15.563 1.19.622 1.27 2.31.112 2.14-.294 2.39-2.02 1.25-2.52-1.66-5.52-1.1-6.49 1.22-.563 1.35-.552 3.86.0229 5.07 1.03 2.16 4.06 2.66 6.56 1.08.785-.498 1.55-.828 1.71-.732.337.208.368 3.14.0387 3.65-.717 1.13-5.57 1.85-7.94 1.18zm11.5-.14c-2.84-1.52-2.64-5.28.365-6.84.458-.238 1.72-.516 2.8-.617 2-.186 2.77-.735 1.88-1.34-.417-.284-3.58-.149-5.14.221-.818.193-.825.181-.825-1.33 0-1.41.0631-1.55.825-1.76.454-.127 2.18-.231 3.82-.231 2.47 0 3.18.107 4.05.61 1.76 1.03 2.1 2.1 2.1 6.75 3e-4 2.76-.115 4.18-.36 4.42-.448.448-2.77.472-3.58.0368-.455-.243-.895-.206-1.79.15-1.56.622-2.9.598-4.15-.075zm5.2-2.84c.355-.259.499-.686.432-1.28-.0886-.779-.209-.877-1-.821-1.58.113-2.21.372-2.4 1-.107.338-.0321.81.167 1.05.449.541 2.09.568 2.81.0458zm46.7 2.86c-1.76-.879-2.1-1.99-2.1-6.84-3e-4-2.88.114-4.33.36-4.58.198-.198.981-.36 1.74-.36s1.54.162 1.74.36c.24.24.36 1.57.36 3.99 0 4 .136 4.35 1.69 4.35 1.92 0 1.91.007 1.91-4.17 0-2.56.118-3.93.36-4.17.198-.198.981-.36 1.74-.36s1.54.162 1.74.36c.253.253.36 1.93.36 5.64s-.107 5.39-.36 5.64c-.509.509-3.08.459-3.52-.0673-.305-.367-.532-.347-1.61.143-1.58.715-3.05.735-4.41.0584zm14.8.34c-2.58-.661-2.55-.635-2.55-2.39 0-.895.118-1.63.262-1.63s.888.277 1.65.616c1.72.761 4.47.727 4.62-.057.0737-.388-.398-.601-2.24-1.01-1.85-.411-2.53-.722-3.32-1.5-1.72-1.72-1.18-4.22 1.21-5.56 1.48-.833 4.55-1.07 6.66-.526l1.5.391.0907 1.58c.102 1.77-.0572 1.87-1.84 1.12-1.4-.583-3.61-.587-4.09-.007-.452.545.206.868 2.79 1.37 1.16.226 2.07.625 2.7 1.19.827.739.95 1.04.95 2.35 0 1.65-.694 2.69-2.37 3.56-.875.455-4.91.792-6.03.505zm38.6-.363c-2.84-1.52-2.64-5.28.365-6.84.458-.238 1.72-.516 2.8-.617 2-.186 2.77-.735 1.88-1.34-.417-.284-3.58-.149-5.14.221-.818.193-.825.181-.825-1.33 0-1.41.0631-1.55.825-1.76.454-.127 2.18-.231 3.82-.231 2.47 0 3.18.107 4.05.61 1.76 1.03 2.1 2.1 2.1 6.75 0 2.76-.115 4.18-.36 4.42-.448.448-2.77.472-3.58.0368-.455-.243-.895-.206-1.79.15-1.56.622-2.9.598-4.15-.075zm5.2-2.84c.355-.259.499-.686.432-1.28-.0886-.779-.209-.877-1-.821-1.58.113-2.21.372-2.4 1-.107.338-.0321.81.167 1.05.449.541 2.09.568 2.81.0458zm18.2 2.95c-2.67-.868-4.04-2.86-4.02-5.86.0147-2.24.505-3.39 2.02-4.72 1.77-1.56 5.74-2.03 8.07-.963.745.34.825.527.825 1.93 0 .854-.0842 1.64-.187 1.74-.103.103-.719-.0841-1.37-.416-1.68-.856-3.73-.693-4.51.359-.842 1.13-.792 3.4.0971 4.35.545.58.979.721 2.22.721.89 0 1.79-.186 2.12-.44 1.21-.916 1.63-.606 1.63 1.2 0 1.53-.064 1.68-.825 1.98-1.36.537-4.59.598-6.08.115zm27.3.0915c-2.63-.755-4.04-2.83-4.04-5.95 0-3.43 1.55-5.4 4.77-6.08 2-.419 4.49-3e-4 5.88.987 2.93 2.09 2.97 8.06.0659 10.1-1.64 1.17-4.44 1.55-6.67.907zm3.87-3.37c.557-.593.682-1.06.682-2.57s-.125-1.98-.682-2.57c-.389-.414-1.02-.726-1.48-.726s-1.09.312-1.48.726c-.557.593-.682 1.06-.682 2.57s.125 1.98.682 2.57c.389.414 1.02.726 1.48.726s1.09-.312 1.48-.726zm-247 3.07c-.253-.253-.36-1.93-.36-5.64s.107-5.39.36-5.64c.198-.198 1-.36 1.78-.36 1.09 0 1.52.143 1.85.603l.422.603 1.42-.629c.878-.388 1.7-.558 2.16-.444.691.173.732.295.648 1.9l-.0897 1.72-1.2.077c-.66.0423-1.64.15-2.18.239l-.975.162v3.53c0 2.34-.121 3.65-.36 3.89-.198.198-.981.36-1.74.36s-1.54-.162-1.74-.36zm25.2 0c-.253-.253-.36-1.93-.36-5.64s.107-5.39.36-5.64c.509-.509 3.08-.459 3.52.0673.305.367.532.347 1.61-.143 2.42-1.1 4.92-.465 5.96 1.51.458.87.55 1.75.55 5.26 0 2.88-.114 4.33-.36 4.58-.198.198-.981.36-1.74.36s-1.54-.162-1.74-.36c-.24-.24-.36-1.57-.36-3.99 0-4-.136-4.35-1.69-4.35-1.92 0-1.91-.007-1.91 4.17 0 2.56-.118 3.93-.36 4.17-.198.198-.981.36-1.74.36s-1.54-.162-1.74-.36zm28.8 0c-.253-.253-.36-1.93-.36-5.64s.107-5.39.36-5.64c.198-.198 1-.36 1.78-.36 1.09 0 1.52.143 1.85.603l.422.603 1.42-.629c.878-.388 1.7-.558 2.16-.444.691.173.732.295.648 1.9l-.0897 1.72-1.2.077c-.66.0423-1.64.15-2.18.239l-.975.162v3.53c0 2.34-.121 3.65-.36 3.89-.198.198-.981.36-1.74.36s-1.54-.162-1.74-.36zm46.8 0c-.253-.253-.36-1.93-.36-5.64s.107-5.39.36-5.64c.509-.509 3.08-.459 3.52.0673.305.367.532.347 1.61-.143.691-.314 1.64-.574 2.11-.577.954-.007 2.9.816 2.9 1.23 0 .464.825.289 2.28-.484 1.6-.853 2.69-.937 4.16-.324 1.72.72 2.08 1.81 2.21 6.71.0781 3.07.005 4.41-.256 4.72-.447.539-3.01.597-3.53.0799-.24-.24-.36-1.57-.36-3.99 0-3.92-.15-4.35-1.54-4.35-1.75 0-1.76.0399-1.76 4.17 0 2.56-.118 3.93-.36 4.17-.198.198-.981.36-1.74.36s-1.54-.162-1.74-.36c-.24-.24-.36-1.57-.36-3.99 0-3.92-.15-4.35-1.54-4.35-1.75 0-1.76.0399-1.76 4.17 0 2.56-.118 3.93-.36 4.17-.198.198-.981.36-1.74.36s-1.54-.162-1.74-.36zm71.7.109c-.294-.187-.362-1.94-.3-7.72l.0804-7.48 4.68-.176 1.34 2.86c.735 1.57 1.34 2.98 1.34 3.13s.178.416.395.596c.312.259.706-.374 1.88-3.04l1.49-3.37h4.78l.0804 7.48c.0621 5.78-.006 7.53-.3 7.72-.448.285-2.67.33-3.36.0685-.4-.154-.475-.813-.475-4.2 0-2.21-.11-4.02-.245-4.02s-.557.776-.939 1.72c-1.12 2.77-1.38 3.08-2.65 3.07-.615-.002-1.27-.104-1.46-.225s-.706-1.1-1.15-2.17c-.446-1.07-.934-2.08-1.08-2.24-.164-.171-.272 1.27-.272 3.62 0 2.63-.117 4.02-.36 4.26-.404.404-2.88.482-3.47.109zm33.6-.161c-.241-.29-.318-2.66-.262-8.02l.0802-7.61h3.9l.0802 7.61c.0566 5.36-.0207 7.73-.262 8.02-.202.244-.925.412-1.77.412s-1.57-.168-1.77-.412zm19.5 0c-.241-.29-.318-2.66-.262-8.02l.0802-7.61h3.9l.174 4.91 1.26-.573c2.43-1.1 4.92-.47 5.96 1.51.458.87.55 1.75.55 5.26 0 2.88-.114 4.33-.36 4.58-.198.198-.981.36-1.74.36s-1.54-.162-1.74-.36c-.24-.24-.36-1.57-.36-3.99 0-4-.136-4.35-1.69-4.35-1.92 0-1.91-.007-1.91 4.17 0 2.56-.118 3.93-.36 4.17-.499.499-3.08.46-3.51-.052zm31.2-.00028c-.188-.227-1.07-2.76-1.97-5.62-1.17-3.77-1.54-5.31-1.31-5.59.338-.407 2.86-.517 3.44-.15.191.122.571 1.1.843 2.17.987 3.88 1.09 4.2 1.31 4.2.125 0 .606-1.18 1.07-2.62 1.17-3.65 1.41-3.98 2.96-3.97.697.002 1.42.104 1.61.225.189.121.773 1.6 1.3 3.3s1.05 3.08 1.17 3.08c.12 0 .531-1.32.915-2.92s.832-3.09.996-3.3c.338-.424 2.86-.502 3.48-.106.332.21.115 1.22-1.15 5.32-.856 2.78-1.75 5.36-1.99 5.74-.363.564-.703.675-2.07.675-1.98 0-2.16-.21-3.29-3.98-.436-1.44-.901-2.62-1.03-2.62-.132 0-.624 1.3-1.09 2.89-.469 1.59-1.04 3.07-1.26 3.3-.548.548-3.48.546-3.94-.002zm-245-13.2c-.0924-.241-.125-.89-.0719-1.44.0945-.987.123-1.01 1.69-1.09l1.59-.0913-.184 2.88-1.43.0916c-1.04.0666-1.47-.028-1.6-.346zm5.41-.315c-.0993-.396-.136-1.04-.0807-1.42.091-.643.246-.706 1.75-.706 1.5 0 1.66.0625 1.75.706.0549.388.0186 1.03-.0807 1.42-.16.638-.348.719-1.67.719s-1.51-.0811-1.67-.719zm-107-3.33c-3.98-.892-9.45-3.15-9.23-3.81.0607-.182.643-.49 1.29-.684 1.78-.53 2.74-1.1 5.53-3.32 3.46-2.73 5.15-3.49 7.8-3.49 2.42 0 5.37.872 7.1 2.1.63.447 1.52.977 1.97 1.18.945.416 1.09 1.15.271 1.41-.309.0982-.704.677-.894 1.31-.519 1.73-2.23 3.51-4.42 4.59-1.67.823-2.32.969-4.71 1.06-1.71.0637-3.52-.0641-4.72-.334zm111-.528c-.365-.587-1.88-9.35-1.65-9.58.11-.112 2.78-.3 5.93-.417 5.44-.202 5.74-.184 5.95.355.7 1.74 3.17 9.21 3.17 9.58 0 .373-1 .439-6.58.439-4.94 0-6.64-.0935-6.82-.375zm-33.4-40.1v-28.1l20.5-10.9c11.3-5.98 20.7-10.9 21-10.9.748 0 27.3 17 27.7 17.8.395.691 11.8 57 11.8 58.3 0 .678-.0846.698-3.68.866-2.02.0951-9.91.254-17.5.352l-13.9.18-.165-.697c-.0905-.383-1.51-12.4-3.15-26.8-1.64-14.3-3.09-26.2-3.23-26.3-.132-.132-2.82 1.51-5.98 3.64l-5.74 3.88-.18 5.78c-.0989 3.18-.258 13.4-.353 22.7-.0952 9.32-.234 17.2-.308 17.4-.116.409-1.04.506-6.48.675-3.49.109-9.49.198-13.3.198h-7zm-97.7 24.7c-.243-.189-1.39-6.89-3.11-18.2-1.5-9.82-2.72-18.1-2.72-18.4.001-.296.293-.579.678-.658.371-.0765 21.8-.841 47.7-1.7 35-1.16 47.1-1.47 47.3-1.22.339.549 2.24 39.1 1.94 39.3-.146.141-18.7.407-41.2.589s-43 .362-45.6.398c-2.73.0392-4.78-.0563-5.01-.234zm15.7-11.8c6.15-.283 11.3-.597 11.5-.697.304-.188-.18-5.02-.565-5.65-.137-.221-3.58-.225-11.4-.013-6.18.167-11.4.356-11.6.421-.269.0847-.375 1.01-.375 3.28 0 3.07.0181 3.16.675 3.17.371.004 5.7-.225 11.9-.509zm30.2-1.03c4.62-.195 8.55-.468 8.73-.606.385-.297-.178-5.18-.652-5.66-.262-.262-21.9.155-22.8.44-.361.111-.832 5.74-.522 6.24.121.196 1.38.24 3.52.123 1.83-.101 7.11-.342 11.7-.538zm27.3-1.03c5.44-.248 9.95-.517 10-.596.194-.194-.423-5.5-.669-5.75-.221-.221-23 .368-23.2.6-.0842.0842-.231 1.46-.327 3.06-.204 3.42-.166 3.48 2.46 3.28.996-.0763 6.26-.342 11.7-.59zm-54.2-7.92c4.17-.136 7.68-.334 7.78-.439.257-.257-.504-5.65-.848-6.01-.261-.274-21.7.592-22.8.924-.451.129-.525.539-.525 2.93 0 1.53.0933 2.87.207 2.99.114.114 2.11.129 4.42.0328 2.32-.096 7.63-.286 11.8-.422zm28.2-1.21c4.35-.147 7.97-.336 8.06-.418.0825-.0825-.0352-1.47-.262-3.09l-.412-2.94-5.39.093c-2.97.0512-8.23.254-11.7.45l-6.3.357-.0874 2.68c-.0481 1.47-.0172 2.86.0686 3.08.125.326.945.373 4.14.236 2.19-.0939 7.54-.291 11.9-.439zm27.2-1.2c4.44-.146 8.18-.381 8.32-.522.301-.301-.536-5.84-.919-6.07-.278-.172-22.1.831-22.7 1.04-.396.134-.563 5.56-.183 5.94.105.105 1.83.122 3.82.0358 2-.0857 7.26-.275 11.7-.421zm111 23.5c-.265-.448-10.1-38.4-10.1-39 0-.507.268-.617 1.88-.767 1.03-.0962 21.4-1.29 45.3-2.66 40.9-2.34 43.5-2.46 43.8-1.97.208.284 3.66 10.3 7.67 22.3 5.9 17.6 7.21 21.8 6.87 22-.509.322-95.3.371-95.5.0492zm15.2-15.8c5.27-.243 9.65-.513 9.73-.6.188-.188-.454-5.53-.693-5.77-.202-.202-23 .439-23.2.653-.241.241-.482 5.48-.277 6.02.155.403.555.453 2.52.312 1.28-.0918 6.64-.365 11.9-.608zm26.6-.901c5.36-.245 9.85-.561 9.99-.702.303-.303-.303-5.16-.694-5.56-.299-.306-22.5.235-23.1.562-.337.208-.466 5.92-.141 6.24.099.099 1.08.118 2.18.0426 1.1-.0756 6.38-.338 11.7-.583zm38.6-.628c.371-.0995.676-.334.676-.521 0-.187-.561-1.74-1.25-3.45l-1.25-3.11-6.93.223c-3.81.123-8.82.309-11.1.413l-4.2.19-.17 6.45 11.8-.004c6.48-.002 12.1-.0855 12.5-.185zm-65.9-8.24c5.36-.182 9.86-.433 9.99-.557.281-.264-.536-5.68-.914-6.06-.224-.224-12.2.251-20.4.811l-2.78.189v5.94l2.18.002c1.2.001 6.56-.147 11.9-.33zm28.2-1.2c5.53-.186 10.1-.426 10.3-.532.25-.227-.592-5.78-.929-6.12-.203-.206-14.2.369-20.7.852l-2.48.184v5.95l1.88.004c1.03.002 6.4-.148 11.9-.334zm25.6-1.2c5.28-.185 9.7-.432 9.83-.547.126-.116-.403-1.59-1.18-3.27l-1.41-3.06-1.37.008c-2.63.0148-18 1.13-18.3 1.33-.352.218-.464 5.33-.124 5.67.271.271 1.44.259 12.6-.131zm32.8 27.6c-.538-.402-15.3-38.8-15.1-39.2.336-.544 103-.928 104-.387.143.143 1.7 9.07 3.46 19.8 2.73 16.7 3.14 19.6 2.77 19.8-.261.165-19.3.278-47.4.281-37.1.004-47.1-.0741-47.5-.37zm26.3-17c.263-.243-.229-5.89-.54-6.2-.169-.169-22.6.49-23.2.68-.265.0862-.375.949-.375 2.93 0 1.55.074 2.88.165 2.97.265.265 23.7-.11 24-.384zm28.7-.763c.341-.352-.277-5.57-.71-5.99-.5-.488-23 .33-23.3.849-.132.208-.242 1.58-.245 3.05l-.005 2.67 12-.151c6.61-.0829 12.1-.271 12.3-.418zm28-.687c.24-.215-.34-5.5-.66-6.02-.143-.232-3.47-.221-11.7.038l-11.5.362-.271.713c-.321.844-.366 4.98-.0574 5.29.263.263 23.9-.112 24.2-.384zm-64.6-8.32c4.34-.109 7.94-.293 8.02-.411.196-.317-.437-5.5-.704-5.77-.126-.126-5.42-.128-11.8-.004l-11.5.226-.234 2.83c-.129 1.56-.16 3.03-.0684 3.27.139.361.85.402 4.28.244 2.27-.104 7.67-.278 12-.386zm32.1-.607 3.1-.187-.192-2.13c-.106-1.17-.263-2.5-.35-2.96l-.158-.825-10.6.0173c-5.8.01-11.1.113-11.8.229l-1.2.212-.174 2.85c-.0957 1.57-.11 2.97-.031 3.11.144.269 15.4.0439 21.3-.316zm20.7-.253c4.87-.0928 9.51-.247 10.3-.342l1.46-.173-.202-2.44c-.111-1.34-.278-2.7-.371-3.02-.164-.556-.52-.567-11.7-.377-8.79.149-11.6.286-11.8.573-.302.476-.326 5.75-.0276 6.05.122.122.965.148 1.88.0586.91-.0894 5.64-.239 10.5-.331zm-331-12.2c-.324-.39-.334-1.07-.0539-3.67.189-1.76.285-3.25.214-3.32-.0716-.0716-.658.145-1.3.481-1.58.825-3.49 1.04-5.63.647-2.81-.52-4.31-1.41-7.07-4.21-2.81-2.85-4.82-5.97-6.48-10.1-1.46-3.62-1.38-3.94.719-2.87 1.64.836 3.07 1.15 7.46 1.66 2.26.261 4.7.737 5.7 1.11 2.37.887 4.75 3.29 6.13 6.17.566 1.19 1.11 2.17 1.21 2.18.101.009.557-1.57 1.01-3.51 1.03-4.36 2.75-9.78 4.34-13.7.666-1.64 1.21-3.08 1.21-3.22 0-.133-1.05-.162-2.32-.0664-4.31.324-7.71-.793-10.7-3.5-1.79-1.63-4.15-4.9-5.52-7.64-1.87-3.74-3.61-9.15-2.93-9.15.0785 0 .585.272 1.12.605 1.71 1.06 4.74 1.8 9.18 2.27 4.54.477 6.3.92 8.34 2.09 1.7.982 3.96 3.55 5.21 5.93.578 1.1 1.12 2 1.2 2 .0825 3e-4.803-1.15 1.6-2.56 1.99-3.5 5.24-8.41 7.89-11.9 1.22-1.6 2.21-3.02 2.21-3.16s-.979-.193-2.18-.133c-2.65.134-6.8-.775-9.04-1.98-4.17-2.24-7.62-7.9-9.34-15.3-.718-3.08-1.39-8.85-1.07-9.17.182-.182.773.142 1.62.89 1.98 1.75 3.83 2.64 9.21 4.47 5.46 1.85 6.95 2.63 8.96 4.63 2.36 2.36 4.53 7.78 4.53 11.3 0 .87.0703 1.58.156 1.58.086 0 2.76-2.6 5.94-5.78s6.55-6.38 7.48-7.12c1.86-1.48 2.14-2.1.95-2.1-2.63 0-9.86-3.5-12.4-6.02-6.05-5.95-8.22-16.9-6.42-32.3.263-2.24.58-2.58 1.4-1.5 3.1 4.08 4.97 5.71 9.63 8.44 7.57 4.42 10.1 6.34 12 9.25 2.3 3.46 3.22 7.27 3.22 13.3.00027 2.19.0793 3.98.176 3.98.0963 0 1.74-1.06 3.66-2.35 4.54-3.07 9.36-5.9 13.8-8.15 1.98-.993 3.6-1.87 3.6-1.96 0-.0841-.965-1.06-2.14-2.17-2.52-2.38-3.85-4.11-5.94-7.75-3.75-6.53-4.27-13.2-1.67-21.3 1.14-3.54 4.26-9.7 7-13.8 3.4-5.1 8.91-11.8 9.66-11.8.165 0 .294.972.294 2.22 0 4.9 1.03 8.21 5.25 17 4.48 9.3 5.14 11.6 4.87 17-.24 4.67-1.66 8.61-4.92 13.7-.73 1.13-1.27 2.12-1.19 2.19.074.074 2.07-.479 4.44-1.23 8.38-2.65 17.6-4.5 26.4-5.28 2.06-.184 3.78-.369 3.82-.411.0417-.0417-.328-1.18-.822-2.54-1.31-3.59-1.8-6.92-1.8-12.2 0-5.09.397-7.5 1.79-10.9 3.7-8.91 13.1-17.2 27.1-23.9 6.29-3.01 13.1-5.54 13.1-4.87 0 .0855-.599 1.28-1.33 2.66-2.8 5.27-3.61 9.38-4.06 20.6-.17 4.15-.516 8.74-.769 10.2-1.51 8.68-6.08 15.1-14.2 19.9-1.15.683-2.09 1.33-2.09 1.44 0 .188 11.1 1.31 16.8 1.7 1.4.0957 2.83.241 3.17.322.502.12.841-.209 1.77-1.71 2.24-3.62 6.88-7.61 12.7-10.9 6.02-3.41 9.85-4.47 16.1-4.47 9.86.01 20.1 3.85 32.4 12.2 5.96 4.04 15.9 12.2 15.7 12.9-.0668.189-.815.278-1.85.221-2.57-.142-7.45.456-10.6 1.3-3.59.961-6.46 2.16-15 6.3-10.4 5-14.1 6.15-20.2 6.14-6.75-.009-14.6-2.8-20.9-7.49-2.51-1.84-3.51-3.17-4.14-5.49-.462-1.7-.601-1.89-1.57-2.22-3.02-1.01-17.3-1.99-29.5-2.01-8.05-.016-9.97.0725-14.2.657-28 3.82-52.4 15.9-72.2 35.6-11.4 11.4-19.4 23.3-24.8 36.9-2.79 7.04-4.74 14.4-5.64 21.3-.206 1.58-.553 3.01-.77 3.19-.217.18-2.12.398-4.23.483-3.27.133-3.89.0853-4.23-.324zm57.6-6.76c0-.243 11.8-11.7 25.5-24.7 16.6-15.8 23.4-21.9 24.3-21.9.509 0 6.89 5 14.7 11.5 10.1 8.45 18.4 15.8 29.3 26 7.31 6.86 7.84 7.56 4.1 5.51-2.4-1.32-18.8-11.7-32.7-20.8-5.94-3.87-11.1-7.24-11.6-7.49-.732-.433-1.41-.0374-26.4 15.4-29.1 18-27.3 17-27.3 16.3z" fill="#fff"/></svg>
